<svg xmlns="http://www.w3.org/2000/svg" viewBox="0 0 64 80" x="0px" y="0px">
  <g data-name="14 North">
    <path fill="#c4c4c4" d="M47.927,40.624l-15-37a.926.926,0,0,0-.078-.124,1.028,1.028,0,0,0-.092-.149,1.008,1.008,0,0,0-.157-.135.917.917,0,0,0-.1-.078.99.99,0,0,0-.225-.087.672.672,0,0,0-.085-.032H32.18a5.4,5.4,0,0,0-.36,0h-.011a.672.672,0,0,0-.085.032.99.99,0,0,0-.225.087.917.917,0,0,0-.1.078,1.008,1.008,0,0,0-.157.135,1.028,1.028,0,0,0-.092.149.926.926,0,0,0-.078.124l-15,37a1,1,0,0,0,1.4,1.258l10.686-5.7A4.989,4.989,0,0,0,31,37.888V53.142a4,4,0,1,0,2,0V37.888a4.989,4.989,0,0,0,2.843-1.708l10.686,5.7a1,1,0,0,0,1.4-1.258Zm-28.964-1.8L31,9.128V28.1h0c-.018,0-.034.012-.052.016a4.972,4.972,0,0,0-.833.259c-.1.039-.184.092-.277.137a5.112,5.112,0,0,0-.53.289c-.1.064-.191.137-.286.207a5.358,5.358,0,0,0-.428.354c-.089.084-.172.171-.255.261a4.7,4.7,0,0,0-.348.422c-.073.1-.143.2-.209.3a5,5,0,0,0-.268.494c-.052.107-.106.21-.15.32a5.134,5.134,0,0,0-.185.595c-.026.1-.06.193-.08.295A4.952,4.952,0,0,0,27,33a5.012,5.012,0,0,0,.049.671c.009.071.026.141.039.212.027.15.057.3.1.446.008.03.011.062.02.092ZM34,57a2,2,0,1,1-2-2A2,2,0,0,1,34,57ZM32,36a3,3,0,1,1,2.648-1.593A3,3,0,0,1,32,36Zm4.794-1.579c.009-.03.012-.062.02-.092.041-.147.071-.3.1-.447.013-.07.03-.14.039-.211A4.852,4.852,0,0,0,37,33a4.952,4.952,0,0,0-.1-.95c-.02-.1-.054-.2-.08-.295a4.947,4.947,0,0,0-.185-.595c-.044-.11-.1-.213-.149-.319a5.244,5.244,0,0,0-.269-.5c-.066-.1-.136-.2-.209-.3a4.7,4.7,0,0,0-.348-.422c-.083-.09-.166-.177-.255-.261a5.2,5.2,0,0,0-.429-.354c-.094-.07-.185-.143-.285-.207a5.112,5.112,0,0,0-.53-.289c-.093-.045-.181-.1-.277-.137a4.972,4.972,0,0,0-.833-.259c-.018,0-.034-.012-.052-.016h0V9.128L45.037,38.819Z"/></g>
  </svg>
